<?xml version="1.0" encoding="utf-8"?>
<!-- Generator: Adobe Illustrator 16.0.3, SVG Export Plug-In . SVG Version: 6.00 Build 0)  -->
<!DOCTYPE svg PUBLIC "-//W3C//DTD SVG 1.1//EN" "http://www.w3.org/Graphics/SVG/1.1/DTD/svg11.dtd">
<svg version="1.1" id="Layer_2" xmlns="http://www.w3.org/2000/svg" xmlns:xlink="http://www.w3.org/1999/xlink" x="0px" y="0px"
	 width="45.667px" height="46.917px" viewBox="0 0 45.667 46.917" enable-background="new 0 0 45.667 46.917" xml:space="preserve">
<path fill="none" stroke="#FFFFFF" stroke-miterlimit="10" d="M4.125,22.833h37.292h0.25V4.667c0,0-1.084-4.667-6.125-4.667
	s-24.5,0-24.5,0S4.125-0.208,4.125,4.75S4.125,22.833,4.125,22.833z"/>
<circle fill="none" stroke="#FFFFFF" stroke-miterlimit="10" cx="22.896" cy="11.61" r="6.729"/>
<path fill="none" stroke="#FFFFFF" stroke-miterlimit="10" d="M38.667,7.604c0,1.139-0.924,2.063-2.063,2.063h-2.166
	c-1.139,0-2.063-0.923-2.063-2.063l0,0c0-1.139,0.924-2.063,2.063-2.063h2.166C37.743,5.542,38.667,6.465,38.667,7.604L38.667,7.604
	z"/>
<path fill="none" stroke="#FFFFFF" stroke-miterlimit="10" d="M11.542,18.021c0,0.426-0.345,0.771-0.771,0.771H9.979
	c-0.426,0-0.771-0.345-0.771-0.771l0,0c0-0.426,0.345-0.771,0.771-0.771h0.792C11.197,17.25,11.542,17.595,11.542,18.021
	L11.542,18.021z"/>
<line fill="none" stroke="#FFFFFF" stroke-miterlimit="10" x1="20.644" y1="5.269" x2="20.644" y2="-0.001"/>
<line fill="none" stroke="#FFFFFF" stroke-miterlimit="10" x1="24.75" y1="5.269" x2="24.75" y2="0"/>
<line fill="none" stroke="#FFFFFF" stroke-miterlimit="10" x1="24.75" y1="18.339" x2="24.75" y2="22.833"/>
<line fill="none" stroke="#FFFFFF" stroke-miterlimit="10" x1="20.644" y1="18.339" x2="20.644" y2="22.833"/>
<line fill="none" stroke="#FFFFFF" stroke-miterlimit="10" x1="3.875" y1="33.75" x2="42.167" y2="33.75"/>
<path fill="none" stroke="#FFFFFF" stroke-miterlimit="10" d="M10.375,33.75c0,2.201-1.919,5.752-3.73,8.611
	C5.029,44.915,3.5,46.917,3.5,46.917h38.167c0,0-1.348-1.998-2.752-4.547c-1.528-2.772-3.123-6.197-3.123-8.411"/>
<polyline fill="none" stroke="#FFFFFF" stroke-miterlimit="10" points="9.208,42.542 39.009,42.542 6.333,42.542 "/>
<path fill="none" stroke="#FFFFFF" stroke-miterlimit="10" d="M37.042,37.709c0,0,2,0,5.125,0s3.5-1.584,3.5-1.584v-6.541H0v6.333
	c0,0,0.583,1.792,3.875,1.792s5.333,0,5.333,0"/>
<line fill="none" stroke="#FFFFFF" stroke-miterlimit="10" x1="4.125" y1="22.833" x2="0" y2="29.584"/>
<line fill="none" stroke="#FFFFFF" stroke-miterlimit="10" x1="45.667" y1="29.584" x2="41.667" y2="22.833"/>
</svg>
