<?xml version="1.0" encoding="utf-8"?>
<!-- Generator: Adobe Illustrator 16.0.3, SVG Export Plug-In . SVG Version: 6.00 Build 0)  -->
<!DOCTYPE svg PUBLIC "-//W3C//DTD SVG 1.1//EN" "http://www.w3.org/Graphics/SVG/1.1/DTD/svg11.dtd">
<svg version="1.1" id="Layer_2" xmlns="http://www.w3.org/2000/svg" xmlns:xlink="http://www.w3.org/1999/xlink" x="0px" y="0px"
	 width="48.57px" height="42.313px" viewBox="0 0 48.57 42.313" enable-background="new 0 0 48.57 42.313" xml:space="preserve">
<polygon fill="none" stroke="#FFFFFF" stroke-miterlimit="10" points="16.285,22.25 32.285,22.25 32.285,42.313 16.285,42.313 
	16.285,24.375 "/>
<path fill="none" stroke="#FFFFFF" stroke-miterlimit="10" d="M16.285,24.375H5.535c0,0-4,0.125-5.063,4s0,7.938,0,7.938
	s1.375,4.063,5.688,4.063s10.125,0,10.125,0V24.375z"/>
<path fill="none" stroke="#FFFFFF" stroke-miterlimit="10" d="M32.285,24.375h10.75c0,0,4,0.125,5.063,4s0,7.938,0,7.938
	s-1.375,4.063-5.688,4.063s-10.125,0-10.125,0V24.375z"/>
<path fill="none" stroke="#FFFFFF" stroke-miterlimit="10" d="M20.41,35.5c0,0,3.688-14.688,7.938,0"/>
<ellipse fill="none" stroke="#FFFFFF" stroke-miterlimit="10" cx="8.356" cy="32.236" rx="4.25" ry="4.264"/>
<path fill="none" stroke="#FFFFFF" stroke-miterlimit="10" d="M43.035,32.188c0,1.242-1.008,2.25-2.25,2.25h-2.563
	c-1.242,0-2.25-1.008-2.25-2.25l0,0c0-1.242,1.008-2.25,2.25-2.25h2.563C42.027,29.938,43.035,30.945,43.035,32.188L43.035,32.188z"
	/>
<path fill="none" stroke="#FFFFFF" stroke-miterlimit="10" d="M12.285,0h24.188v13.313c0,0-0.625,2.688-4.188,2.688
	c-2.688,0-10.422,0-14.063,0c-1.187,0-1.938,0-1.938,0s-4,0.375-4-2.375S12.285,0,12.285,0z"/>
<polyline fill="none" stroke="#FFFFFF" stroke-miterlimit="10" points="18.535,16.017 18.535,22.25 30.285,22.25 30.285,16 "/>
<line fill="none" stroke="#FFFFFF" stroke-miterlimit="10" x1="16.285" y1="3.938" x2="16.285" y2="12.188"/>
<line fill="none" stroke="#FFFFFF" stroke-miterlimit="10" x1="20.41" y1="3.938" x2="20.41" y2="12.188"/>
<line fill="none" stroke="#FFFFFF" stroke-miterlimit="10" x1="24.285" y1="3.938" x2="24.285" y2="12.188"/>
<line fill="none" stroke="#FFFFFF" stroke-miterlimit="10" x1="28.347" y1="3.938" x2="28.347" y2="12.188"/>
<line fill="none" stroke="#FFFFFF" stroke-miterlimit="10" x1="32.285" y1="3.938" x2="32.285" y2="12.188"/>
</svg>
